<?xml version="1.0" encoding="UTF-8"?>
<!-- Do not edit this file with editors other than draw.io -->
<!DOCTYPE svg PUBLIC "-//W3C//DTD SVG 1.1//EN" "http://www.w3.org/Graphics/SVG/1.1/DTD/svg11.dtd">
<svg xmlns="http://www.w3.org/2000/svg" xmlns:xlink="http://www.w3.org/1999/xlink" version="1.1" width="763px" height="383px" viewBox="-0.5 -0.5 763 383" content="&lt;mxfile host=&quot;app.diagrams.net&quot; modified=&quot;2024-01-07T18:32:31.278Z&quot; agent=&quot;Mozilla/5.0 (Windows NT 10.0; Win64; x64) AppleWebKit/537.36 (KHTML, like Gecko) Chrome/120.0.0.0 Safari/537.36&quot; etag=&quot;uS7INFlaFWfr5ez1PxZW&quot; version=&quot;22.1.17&quot; type=&quot;google&quot;&gt;&lt;diagram name=&quot;Page-1&quot; id=&quot;5987fedf-629e-85c4-6858-42fee31821dd&quot;&gt;7V1bl5s4Ev41Pmf2oX0QAoEf+xJnMpPM9pnsbpJHbLBNgsGDcdo9D/PbV9gIIxC2wBKXNj3nTIwAAVWfitJXVWIEH9f796G1WX0KbMcbqYq9H8GnkapOkI7/Hze8HhuQAY8Ny9C1j03g1PDZ/dtJGpWkdefazpY6MAoCL3I3dOM88H1nHlFtVhgGL/Rhi8Cjr7qxlk6h4fPc8kjrWD+1f3HtaJW0AzQ57fjVcZer5OKmio47Ztb8xzIMdn5yRT/wneOetUW6SZ5yu7Ls4CXTBN+N4GMYBNHx13r/6HixXInMyHnRK7nREXxYRWsPbwD887B7WnIy4DkZP1fo+FH2cmX9qZZuKcC2VUcDcDFb3GmJaH5a3o5cQUUe7uxhEeA+s9dGf+3ip3ygfi2Tfw+nbDeWzzwl7uvuJRH9PT7ED8K15Z3trPT6h862B/zFXeHn3zM7mobB+nCprUP6xJI5dktfCjcfb51unoWMA+nzc9qJnH1Ea2gbhcEP5zHwghC3HICFn8D1vFyT5blLH2/OsSYd3P7w0wkjF6P7Ptmxdm07vszDy8qNnM8bax5f8wUPZdx2wK4TK1mJr0kwqiTSSgarmm4ndwwOp0ZW5AbxJVRDYWIqQWF8R84+05Rg7L0TrJ0ofMWHJHvvYIL6xJQAPdl+yQxLmEBvlRmR5DwrsQXLtOsTqPGPBNdsjP/HW9rTbx++fXD+nn1bffyi2O8/3BlqOzjXFEUIyIFZAvLfHf81iG9mjqWwHcXjPw/e3x/j9l/+icfKSH1UFOVfw3goGQ/XYx8BlcK+aphF7JPx0Az2IQP7OUXFb79YcAvP3fyv9OVCv8GtGTlbqSokqNMGAqpFA5G2ZYWkShOSdllIuBvszJRhLgNya7s5ejgLdx+jkCHK85q6LMiMoJqVk94vOe1pebQmNiRTbFn7OVLhYrFQ53Pcvgwt28WizOybTqfq42PBEOM9NpohHclUgta2EoxeYhe1LTazl2Iz2xYba2rVfbEBpWW5Eb01ZCrntmoyzaExmR2cd4YRXSwsXWHPlURpoW30mkCmFuTJre13jMmaaPZAbm2/ZMye+d+pX9m23Hrqj7ftkJv99AVbdwbNfjqDrc89zH56g7B1+8ZBXon3BlkTZ2U6BZOznqK8t3Pr1rIr9MViYU8Qaoe+aH1GCQi1XCWKwRtIEBfb+Peff7ADEb/8o1Ohh7IYg4Cn6HdgApgiAxOEYwdGAb7NBiKAyppUto5fhfcSz2HwHVsu9xBv851dGPgx0J//OMbXwIDuFtBN9uZCzky0o0bRTnpuIuacSYfQEvAoVZIuxuPxEPyVkwwByBQ9TYZARWSaRWCSNgluRINJPwMwOwtMEqA4k6QDGzWYGstg5nR3TFQoe/jrMxMmgBIKg27RidwooUgbrJDl8/MJ5byUr5cVUNAYTLJ/BWFNSFJmM8JSpbJ6uXnqfO7oiwVrLgoRnMAKvMxJyZUSPyZjjZI+4yVScogEyUvlBTsheWIntbGqM4DeIV1I5Rq7pAvVHHdbFVArSJ72AoIwWgXLwLe8j0GwSWT+3Ymi18QdsHZRQGvE2bvR18zvb3FXWA7Hrad90vNh45Vs+PhxvmY3MmfFm6fTDlvkPNvarg73eriYb9/Hifonfwi3TN1YJE8V+M/0DbQNduHcOeupkkICK1w6Z/sk9sexqSqBInJCx8Oe1M/sQVIUrzejeHDjap+IVnty6nPgHmZCaRyEcgvzPvDxkZJzTtApdAMAovoht0/6OT5woZ8DBNOHuQaVqCFzJAWVl4D4fbfekElTcgAF5FaBanTLPgEWFSvMR6gq6QreV9sxGMgzxSgANSMsesDVeZkXPC3NvEfvnqQgnBu32RkyQyGk7Uo7nHJXCRz0enZYN852I90M80yW2sIQvnBi64/HWWGU2ZaAMF7PrSmE6WPEIDWI/ZmMSTD8WtCBpl/+PNPCm0Edr+PYFOpox5DMG6/FGITNYkzjcCukU7i54lOGy9Awh6uptaVyXsxvkcPVmsz4EshepUruLYerSc3B7oTke8PhalLzuruki85zuFpTpEmvOFyyNMlFT4ssMXKZIyH2pysciWY0o/g+cbgy1K6LVvub5nA1syFz1G8OVwZQYcfsUxdqSk5Tvv5wuGTS3kkmRALCeXE7cLgVMMQTQOk5m8aPMF7PbeBwr0QdB5N0O6jjdRwHDrcKxnhKfOe78OeZyUU54Chn7wglslanmgHkCYSXXVHhwDK7FfPUySnE5pigJrAAPQO60xUuZGHlWq+ZwzbxAdtzN8xm4MvuSzPo4zXqcPzjeAOCLSn3qngFeEmLVDAKTBuOVOgcFHClSAUR81uMVOg95WhTJfc2UqE3WY/ejuR7E6nQe1pzUV0XnY9U6E1Rg32KVJA30OX5BOLO5iT2pytMoD5pRvE9ilRIUbvwJN43HakgxZNDpKJxoAoPqV1nnxAPWSo9UqHzL/nTlUgF6jLfJx7h3LgdIhUVMMSTUNdvzrgCwng9tyFScSXqeJIJbwZ13WKU30qkAnEQcA1zuKmz3h6HizjIsUocLhHzW+RwUU/Zq1TJveVwUU9XDKkg+d5wuOQLiW9fF53ncI2mSJM+cbjkDXTZ0yLL+l7mSFDHVgwxih/7vHUOV4rahxVDKqGy+CIYONxmgNqxFUN4PiMpn8NNp3z94XC5Pi3ZdQ6XH+HcuB043AoY4kk16jebVgFhw4ohDaGOJ83qZlA3rBgiBWMsAk7QNyE+7barMAjW+JhZYL8OX2GQ/RUGaObY8KLv1fAnR5gfrxUEr3usHR9PfPAxXjBzBnjJhheJZHcHXbWW1KKmmAX9kXIYWJB1LE7qU94Q/zHfkU/xf8y3IOjUSyz9vFz6EqtJk+Q7ys/mpNdMcVQU166ZqlETdanOqhQYF/0go1sJFDDHs9Um2vKvLsSHoKq1UYU3JDxfG5V/PoI0ucVRcr9inIsHgZkFHJVlxxQFvbufFi3f4vBXADbb76/uxJD5ZSJywt90NGDU6BcyO6crEjUhw4nw411VFgcXKKu2tr7NJzarIzZfhwYJ4qZRkZpWX1casfr5y1yy+nre6quNWP0m6xm7Zkl0kPtMG+y4JWmyBLJzylLoVzSrcrpTymoyy6xzysotO6BqHXeomkyG6pyyDJpjAWq3lTXhmHi/XWWZtPfbHTPovVvcoU/e4tffXr4+L/878z8u/DuOIrDtytrEPz3X/3HO1y0oYDqN75xJoo1YvitD8mfdWaAI4it02s2AeY+T13NF5oWOxFFeTGWKZAiKc5V44H0hEI0bVtZ8tQud9/GpT2ZxaKb6j9sJ52wH2CnH3f9wovlqxCLJs2eWjD4upBClkHSplM8sfoVaZ+S3q3BMSkSEj7pa2SdlFDUPM3k+wbBc/vE1n60ockL/0IuqqBVGLw91qV0c5jJnrUDQyIdGuyO/VipK/wDVGqOdY4jrx0Qm7eKk1keOBpzw4kQTFTvTLhkmyTgRGkMdcFJQryoKJ7BdnHB9snAASn2gaKKAcmmOIxsoPHOTASj1gYJEAaVlTxbUWhljAAo3UES5slrLriy4kUl0a3NjUb7sxUm2bKAMk2PJJMpEEFBIvnxbQKlVWjEAhRsoUBRQ9JaBUut74wNQuIGiiwKK0TJQBr5NLlDyhVK1gTJpGSgD4SYXKBNBQEGgXaCk63sNQJECFCTKmUUtO7Np5soAFDlAEeXMopadWYKLASiSgCLKmUUtO7OkjCOLCyx1kthzWnTo3an14fqFibzZAXekHhY3UcUY5XCpv7RBsUJDSK4LSWLNrjNUnsdVxGs1IFathzCUHE1H10NcXd/AfFLIcmculIKXl2dvN5bPPOVQ5/2SjO240jsO1J/r6fo69OePeLfv7MLAL60eT5uPN043xyXrb6n6XE236erz65L7SFyRgNZQ0qy9bKYoZNh3ESXobFCzXK9quFK1ElwBXjDQSrmQ7JlL3LR1x7Q13L4MLdt1qOzpiWErhsEyvKY6gwil93KVXjW6lkSHjBVCiZib0SnLSxKkU/U2dApyuQwqqeltTaesULMgncLb0Gn+M6FAY63l26xWWXFhQVrVbkOruqnminlL3quCFIs3wyAW9Mm1xEJafQpsJz7i/w==&lt;/diagram&gt;&lt;/mxfile&gt;" style="background-color: rgb(255, 255, 255);"><defs><linearGradient x1="0%" y1="0%" x2="0%" y2="100%" id="mx-gradient-fff2cc-1-fff2cc-1-s-0"><stop offset="0%" style="stop-color: rgb(255, 242, 204); stop-opacity: 1;"/><stop offset="100%" style="stop-color: rgb(255, 242, 204); stop-opacity: 1;"/></linearGradient><linearGradient x1="0%" y1="0%" x2="0%" y2="100%" id="mx-gradient-ffcd28-1-ffa500-1-s-0"><stop offset="0%" style="stop-color: rgb(255, 205, 40); stop-opacity: 1;"/><stop offset="100%" style="stop-color: rgb(255, 165, 0); stop-opacity: 1;"/></linearGradient><linearGradient x1="0%" y1="0%" x2="0%" y2="100%" id="mx-gradient-ffcd28-1-f0ff19-1-s-0"><stop offset="0%" style="stop-color: rgb(255, 205, 40); stop-opacity: 1;"/><stop offset="100%" style="stop-color: rgb(240, 255, 25); stop-opacity: 1;"/></linearGradient><linearGradient x1="0%" y1="0%" x2="0%" y2="100%" id="mx-gradient-fff2cc-1-ffd966-1-s-0"><stop offset="0%" style="stop-color: rgb(255, 242, 204); stop-opacity: 1;"/><stop offset="100%" style="stop-color: rgb(255, 217, 102); stop-opacity: 1;"/></linearGradient><linearGradient x1="0%" y1="0%" x2="0%" y2="100%" id="mx-gradient-d5e8d4-1-97d077-1-s-0"><stop offset="0%" style="stop-color: rgb(213, 232, 212); stop-opacity: 1;"/><stop offset="100%" style="stop-color: rgb(151, 208, 119); stop-opacity: 1;"/></linearGradient></defs><g><rect x="-30" y="131" width="139" height="30" fill="none" stroke="none" transform="rotate(270,39.5,146)" pointer-events="all"/><g transform="translate(-0.5 -0.5)rotate(270 39.500000000000114 146)"><switch><foreignObject pointer-events="none" width="100%" height="100%" requiredFeatures="http://www.w3.org/TR/SVG11/feature#Extensibility" style="overflow: visible; text-align: left;"><div xmlns="http://www.w3.org/1999/xhtml" style="display: flex; align-items: unsafe center; justify-content: unsafe center; width: 137px; height: 1px; padding-top: 146px; margin-left: -29px;"><div data-drawio-colors="color: rgb(0, 0, 0); " style="box-sizing: border-box; font-size: 0px; text-align: center;"><div style="display: inline-block; font-size: 20px; font-family: Helvetica; color: rgb(0, 0, 0); line-height: 1.2; pointer-events: all; font-weight: bold; white-space: normal; overflow-wrap: normal;"><font style=""><span style="font-weight: normal;"><font style="font-size: 20px;">From nose</font></span><br /></font></div></div></div></foreignObject><text x="40" y="152" fill="rgb(0, 0, 0)" font-family="Helvetica" font-size="20px" text-anchor="middle" font-weight="bold">From nose&#xa;</text></switch></g><rect x="612" y="259" width="150" height="30" fill="none" stroke="none" pointer-events="all"/><g transform="translate(-0.5 -0.5)"><switch><foreignObject pointer-events="none" width="100%" height="100%" requiredFeatures="http://www.w3.org/TR/SVG11/feature#Extensibility" style="overflow: visible; text-align: left;"><div xmlns="http://www.w3.org/1999/xhtml" style="display: flex; align-items: unsafe center; justify-content: unsafe center; width: 148px; height: 1px; padding-top: 274px; margin-left: 613px;"><div data-drawio-colors="color: rgb(0, 0, 0); " style="box-sizing: border-box; font-size: 0px; text-align: center;"><div style="display: inline-block; font-size: 20px; font-family: Helvetica; color: rgb(0, 0, 0); line-height: 1.2; pointer-events: all; font-weight: bold; white-space: normal; overflow-wrap: normal;"><font style=""><span style="font-weight: 400;"><font style="font-size: 18px;">Kenyon cells <br />KCs (~ 2,000)</font></span><br /></font></div></div></div></foreignObject><text x="687" y="280" fill="rgb(0, 0, 0)" font-family="Helvetica" font-size="20px" text-anchor="middle" font-weight="bold">Kenyon cells...</text></switch></g><ellipse cx="360" cy="311" rx="10" ry="10" fill="rgb(255, 255, 255)" stroke="rgb(0, 0, 0)" pointer-events="all"/><ellipse cx="380" cy="311" rx="10" ry="10" fill="rgb(255, 255, 255)" stroke="rgb(0, 0, 0)" pointer-events="all"/><ellipse cx="400" cy="311" rx="10" ry="10" fill="url(#mx-gradient-fff2cc-1-fff2cc-1-s-0)" stroke="#d6b656" pointer-events="all"/><ellipse cx="420" cy="311" rx="10" ry="10" fill="rgb(255, 255, 255)" stroke="rgb(0, 0, 0)" pointer-events="all"/><ellipse cx="440" cy="311" rx="10" ry="10" fill="rgb(255, 255, 255)" stroke="rgb(0, 0, 0)" pointer-events="all"/><ellipse cx="460" cy="311" rx="10" ry="10" fill="rgb(255, 255, 255)" stroke="rgb(0, 0, 0)" pointer-events="all"/><ellipse cx="540" cy="311" rx="10" ry="10" fill="url(#mx-gradient-ffcd28-1-ffa500-1-s-0)" stroke="#d79b00" pointer-events="all"/><ellipse cx="500" cy="311" rx="10" ry="10" fill="rgb(255, 255, 255)" stroke="rgb(0, 0, 0)" pointer-events="all"/><ellipse cx="520" cy="311" rx="10" ry="10" fill="rgb(255, 255, 255)" stroke="rgb(0, 0, 0)" pointer-events="all"/><ellipse cx="560" cy="311" rx="10" ry="10" fill="rgb(255, 255, 255)" stroke="rgb(0, 0, 0)" pointer-events="all"/><ellipse cx="580" cy="311" rx="10" ry="10" fill="rgb(255, 255, 255)" stroke="rgb(0, 0, 0)" pointer-events="all"/><ellipse cx="620" cy="311" rx="10" ry="10" fill="rgb(255, 255, 255)" stroke="rgb(0, 0, 0)" pointer-events="all"/><ellipse cx="600" cy="311" rx="10" ry="10" fill="rgb(255, 255, 255)" stroke="rgb(0, 0, 0)" pointer-events="all"/><ellipse cx="660" cy="311" rx="10" ry="10" fill="rgb(255, 255, 255)" stroke="rgb(0, 0, 0)" pointer-events="all"/><ellipse cx="480" cy="311" rx="10" ry="10" fill="url(#mx-gradient-ffcd28-1-f0ff19-1-s-0)" stroke="#d79b00" pointer-events="all"/><ellipse cx="640" cy="311" rx="10" ry="10" fill="url(#mx-gradient-fff2cc-1-ffd966-1-s-0)" stroke="#d6b656" pointer-events="all"/><rect x="0" y="298" width="150" height="30" fill="none" stroke="none" pointer-events="all"/><g transform="translate(-0.5 -0.5)"><switch><foreignObject pointer-events="none" width="100%" height="100%" requiredFeatures="http://www.w3.org/TR/SVG11/feature#Extensibility" style="overflow: visible; text-align: left;"><div xmlns="http://www.w3.org/1999/xhtml" style="display: flex; align-items: unsafe center; justify-content: unsafe center; width: 148px; height: 1px; padding-top: 313px; margin-left: 1px;"><div data-drawio-colors="color: rgb(0, 0, 0); " style="box-sizing: border-box; font-size: 0px; text-align: center;"><div style="display: inline-block; font-size: 18px; font-family: Helvetica; color: rgb(0, 0, 0); line-height: 1.2; pointer-events: all; font-weight: bold; white-space: normal; overflow-wrap: normal;"><font style="font-size: 18px;"><span style="font-weight: 400;">ORNs <br />(~50)</span><br style="font-size: 18px;" /></font></div></div></div></foreignObject><text x="75" y="318" fill="rgb(0, 0, 0)" font-family="Helvetica" font-size="18px" text-anchor="middle" font-weight="bold">ORNs...</text></switch></g><rect x="130" y="298" width="160" height="30" fill="none" stroke="none" pointer-events="all"/><g transform="translate(-0.5 -0.5)"><switch><foreignObject pointer-events="none" width="100%" height="100%" requiredFeatures="http://www.w3.org/TR/SVG11/feature#Extensibility" style="overflow: visible; text-align: left;"><div xmlns="http://www.w3.org/1999/xhtml" style="display: flex; align-items: unsafe center; justify-content: unsafe center; width: 158px; height: 1px; padding-top: 313px; margin-left: 131px;"><div data-drawio-colors="color: rgb(0, 0, 0); " style="box-sizing: border-box; font-size: 0px; text-align: center;"><div style="display: inline-block; font-size: 18px; font-family: Helvetica; color: rgb(0, 0, 0); line-height: 1.2; pointer-events: all; font-weight: bold; white-space: normal; overflow-wrap: normal;"><font style="font-size: 18px;"><span style="font-weight: 400; font-size: 18px;">Projection neurons PNs (~150)</span><br style="font-size: 18px;" /></font></div></div></div></foreignObject><text x="210" y="318" fill="rgb(0, 0, 0)" font-family="Helvetica" font-size="18px" text-anchor="middle" font-weight="bold">Projection neurons...</text></switch></g><rect x="185" y="137" width="18" height="18" fill="none" stroke="none" transform="rotate(270,194,146)" pointer-events="all"/><g transform="translate(-0.5 -0.5)rotate(270 194 146)"><switch><foreignObject pointer-events="none" width="100%" height="100%" requiredFeatures="http://www.w3.org/TR/SVG11/feature#Extensibility" style="overflow: visible; text-align: left;"><div xmlns="http://www.w3.org/1999/xhtml" style="display: flex; align-items: unsafe center; justify-content: unsafe center; width: 16px; height: 1px; padding-top: 146px; margin-left: 186px;"><div data-drawio-colors="color: rgb(0, 0, 0); " style="box-sizing: border-box; font-size: 0px; text-align: center;"><div style="display: inline-block; font-size: 20px; font-family: Helvetica; color: rgb(0, 0, 0); line-height: 1.2; pointer-events: all; font-weight: bold; white-space: normal; overflow-wrap: normal;"><font style=""><span style="font-size: 24px; font-weight: normal;">...</span><br /></font></div></div></div></foreignObject><text x="194" y="152" fill="rgb(0, 0, 0)" font-family="Helvetica" font-size="20px" text-anchor="middle" font-weight="bold">.....</text></switch></g><rect x="79" y="131" width="30" height="30" fill="none" stroke="none" transform="rotate(270,94,146)" pointer-events="all"/><g transform="translate(-0.5 -0.5)rotate(270 94 146)"><switch><foreignObject pointer-events="none" width="100%" height="100%" requiredFeatures="http://www.w3.org/TR/SVG11/feature#Extensibility" style="overflow: visible; text-align: left;"><div xmlns="http://www.w3.org/1999/xhtml" style="display: flex; align-items: unsafe center; justify-content: unsafe center; width: 28px; height: 1px; padding-top: 146px; margin-left: 80px;"><div data-drawio-colors="color: rgb(0, 0, 0); " style="box-sizing: border-box; font-size: 0px; text-align: center;"><div style="display: inline-block; font-size: 20px; font-family: Helvetica; color: rgb(0, 0, 0); line-height: 1.2; pointer-events: all; font-weight: bold; white-space: normal; overflow-wrap: normal;"><font style=""><span style="font-size: 24px; font-weight: normal;">...</span><br /></font></div></div></div></foreignObject><text x="94" y="152" fill="rgb(0, 0, 0)" font-family="Helvetica" font-size="20px" text-anchor="middle" font-weight="bold">...&#xa;</text></switch></g><ellipse cx="201.95" cy="45.75" rx="4.749999999999998" ry="4.749999999999998" fill="#cce5ff" stroke="#36393d" pointer-events="all"/><ellipse cx="201.95" cy="60" rx="4.749999999999998" ry="4.749999999999998" fill="#cce5ff" stroke="#36393d" pointer-events="all"/><ellipse cx="201.95" cy="74.25" rx="4.749999999999998" ry="4.749999999999998" fill="#cce5ff" stroke="#36393d" pointer-events="all"/><path d="M 111 61 L 197.2 60" fill="none" stroke="rgb(0, 0, 0)" stroke-miterlimit="10" stroke-dasharray="3 3" pointer-events="stroke"/><path d="M 108.07 68.07 L 197.2 74.25" fill="none" stroke="rgb(0, 0, 0)" stroke-miterlimit="10" stroke-dasharray="3 3" pointer-events="stroke"/><path d="M 108.07 53.93 L 197.2 45.75" fill="none" stroke="rgb(0, 0, 0)" stroke-miterlimit="10" stroke-dasharray="3 3" pointer-events="stroke"/><ellipse cx="101" cy="61" rx="10" ry="10" fill="rgb(255, 255, 255)" stroke="rgb(0, 0, 0)" pointer-events="all"/><path d="M 206.7 45.75 L 670 46" fill="none" stroke="#48a6ed" stroke-miterlimit="10" pointer-events="stroke"/><path d="M 206.7 60 L 670 60" fill="none" stroke="#48a6ed" stroke-miterlimit="10" pointer-events="stroke"/><path d="M 206.7 74.25 L 670 74" fill="none" stroke="#48a6ed" stroke-miterlimit="10" pointer-events="stroke"/><ellipse cx="200.95" cy="95.75" rx="4.749999999999998" ry="4.749999999999998" fill="#cce5ff" stroke="#36393d" pointer-events="all"/><ellipse cx="200.95" cy="110" rx="4.749999999999998" ry="4.749999999999998" fill="#cce5ff" stroke="#36393d" pointer-events="all"/><ellipse cx="200.95" cy="124.25" rx="4.749999999999998" ry="4.749999999999998" fill="#cce5ff" stroke="#36393d" pointer-events="all"/><path d="M 110 111 L 196.2 110" fill="none" stroke="rgb(0, 0, 0)" stroke-miterlimit="10" stroke-dasharray="3 3" pointer-events="stroke"/><path d="M 107.07 118.07 L 196.2 124.25" fill="none" stroke="rgb(0, 0, 0)" stroke-miterlimit="10" stroke-dasharray="3 3" pointer-events="stroke"/><path d="M 107.07 103.93 L 196.2 95.75" fill="none" stroke="rgb(0, 0, 0)" stroke-miterlimit="10" stroke-dasharray="3 3" pointer-events="stroke"/><ellipse cx="100" cy="111" rx="10" ry="10" fill="rgb(255, 255, 255)" stroke="rgb(0, 0, 0)" pointer-events="all"/><path d="M 205.7 95.75 L 669 96" fill="none" stroke="#48a6ed" stroke-miterlimit="10" pointer-events="stroke"/><path d="M 205.7 110 L 669 110" fill="none" stroke="#48a6ed" stroke-miterlimit="10" pointer-events="stroke"/><path d="M 205.7 124.25 L 669 124" fill="none" stroke="#48a6ed" stroke-miterlimit="10" pointer-events="stroke"/><path d="M 620 301 Q 610 201 585 166 Q 560 131 600 41" fill="none" stroke="rgb(0, 0, 0)" stroke-width="2" stroke-miterlimit="10" pointer-events="stroke"/><ellipse cx="200.95" cy="165.75" rx="4.749999999999998" ry="4.749999999999998" fill="#cce5ff" stroke="#36393d" pointer-events="all"/><ellipse cx="200.95" cy="180" rx="4.749999999999998" ry="4.749999999999998" fill="#cce5ff" stroke="#36393d" pointer-events="all"/><ellipse cx="200.95" cy="194.25" rx="4.749999999999998" ry="4.749999999999998" fill="#cce5ff" stroke="#36393d" pointer-events="all"/><path d="M 110 181 L 196.2 180" fill="none" stroke="rgb(0, 0, 0)" stroke-miterlimit="10" stroke-dasharray="3 3" pointer-events="stroke"/><path d="M 107.07 188.07 L 196.2 194.25" fill="none" stroke="rgb(0, 0, 0)" stroke-miterlimit="10" stroke-dasharray="3 3" pointer-events="stroke"/><path d="M 107.07 173.93 L 196.2 165.75" fill="none" stroke="rgb(0, 0, 0)" stroke-miterlimit="10" stroke-dasharray="3 3" pointer-events="stroke"/><ellipse cx="100" cy="181" rx="10" ry="10" fill="rgb(255, 255, 255)" stroke="rgb(0, 0, 0)" pointer-events="all"/><path d="M 205.7 165.75 L 669 166" fill="none" stroke="#48a6ed" stroke-miterlimit="10" pointer-events="stroke"/><path d="M 205.7 180 L 669 180" fill="none" stroke="#48a6ed" stroke-miterlimit="10" pointer-events="stroke"/><path d="M 205.7 194.25 L 669 194" fill="none" stroke="#48a6ed" stroke-miterlimit="10" pointer-events="stroke"/><ellipse cx="200.95" cy="215.75" rx="4.749999999999998" ry="4.749999999999998" fill="#cce5ff" stroke="#36393d" pointer-events="all"/><ellipse cx="200.95" cy="230" rx="4.749999999999998" ry="4.749999999999998" fill="#cce5ff" stroke="#36393d" pointer-events="all"/><ellipse cx="200.95" cy="244.25" rx="4.749999999999998" ry="4.749999999999998" fill="#cce5ff" stroke="#36393d" pointer-events="all"/><path d="M 110 231 L 196.2 230" fill="none" stroke="rgb(0, 0, 0)" stroke-miterlimit="10" stroke-dasharray="3 3" pointer-events="stroke"/><path d="M 107.07 238.07 L 196.2 244.25" fill="none" stroke="rgb(0, 0, 0)" stroke-miterlimit="10" stroke-dasharray="3 3" pointer-events="stroke"/><path d="M 107.07 223.93 L 196.2 215.75" fill="none" stroke="rgb(0, 0, 0)" stroke-miterlimit="10" stroke-dasharray="3 3" pointer-events="stroke"/><ellipse cx="100" cy="231" rx="10" ry="10" fill="rgb(255, 255, 255)" stroke="rgb(0, 0, 0)" pointer-events="all"/><path d="M 205.7 215.75 L 669 216" fill="none" stroke="#48a6ed" stroke-miterlimit="10" pointer-events="stroke"/><path d="M 205.7 230 L 669 230" fill="none" stroke="#48a6ed" stroke-miterlimit="10" pointer-events="stroke"/><path d="M 205.7 244.25 L 669 244" fill="none" stroke="#48a6ed" stroke-miterlimit="10" pointer-events="stroke"/><rect x="380" y="1" width="150" height="30" fill="none" stroke="none" pointer-events="all"/><g transform="translate(-0.5 -0.5)"><switch><foreignObject pointer-events="none" width="100%" height="100%" requiredFeatures="http://www.w3.org/TR/SVG11/feature#Extensibility" style="overflow: visible; text-align: left;"><div xmlns="http://www.w3.org/1999/xhtml" style="display: flex; align-items: unsafe center; justify-content: unsafe center; width: 148px; height: 1px; padding-top: 16px; margin-left: 381px;"><div data-drawio-colors="color: rgb(0, 0, 0); " style="box-sizing: border-box; font-size: 0px; text-align: center;"><div style="display: inline-block; font-size: 18px; font-family: Helvetica; color: rgb(0, 0, 0); line-height: 1.2; pointer-events: all; font-weight: bold; white-space: normal; overflow-wrap: normal;"><font style="font-size: 18px;">Mushroom body<br style="font-size: 18px;" /></font></div></div></div></foreignObject><text x="455" y="21" fill="rgb(0, 0, 0)" font-family="Helvetica" font-size="18px" text-anchor="middle" font-weight="bold">Mushroom body&#xa;</text></switch></g><rect x="63" y="1" width="150" height="30" fill="none" stroke="none" pointer-events="all"/><g transform="translate(-0.5 -0.5)"><switch><foreignObject pointer-events="none" width="100%" height="100%" requiredFeatures="http://www.w3.org/TR/SVG11/feature#Extensibility" style="overflow: visible; text-align: left;"><div xmlns="http://www.w3.org/1999/xhtml" style="display: flex; align-items: unsafe center; justify-content: unsafe center; width: 148px; height: 1px; padding-top: 16px; margin-left: 64px;"><div data-drawio-colors="color: rgb(0, 0, 0); " style="box-sizing: border-box; font-size: 0px; text-align: center;"><div style="display: inline-block; font-size: 18px; font-family: Helvetica; color: rgb(0, 0, 0); line-height: 1.2; pointer-events: all; font-weight: bold; white-space: normal; overflow-wrap: normal;"><font style="font-size: 18px;">Antennal lobe<br style="font-size: 18px;" /></font></div></div></div></foreignObject><text x="138" y="21" fill="rgb(0, 0, 0)" font-family="Helvetica" font-size="18px" text-anchor="middle" font-weight="bold">Antennal lobe&#xa;</text></switch></g><path d="M 300 321 L 300 1" fill="none" stroke="#4d4d4d" stroke-width="3" stroke-miterlimit="10" stroke-dasharray="9 9" pointer-events="stroke"/><path d="M 400 301 Q 380 211 355 186 Q 330 161 380 41" fill="none" stroke="rgb(0, 0, 0)" stroke-width="2" stroke-miterlimit="10" pointer-events="stroke"/><ellipse cx="372.75" cy="59.75" rx="4.749999999999998" ry="4.749999999999998" fill="#1ba1e2" stroke="#006eaf" stroke-width="0.1" pointer-events="all"/><ellipse cx="375.75" cy="214.75" rx="4.749999999999998" ry="4.749999999999998" fill="#1ba1e2" stroke="#006eaf" stroke-width="0.1" pointer-events="all"/><path d="M 536.29 301.72 Q 500 211 515 156 Q 530 101 500 41" fill="none" stroke="rgb(0, 0, 0)" stroke-width="2" stroke-miterlimit="10" pointer-events="stroke"/><ellipse cx="519.75" cy="124.75" rx="4.749999999999998" ry="4.749999999999998" fill="#1ba1e2" stroke="#006eaf" stroke-width="0.1" pointer-events="all"/><ellipse cx="512.75" cy="165.75" rx="4.749999999999998" ry="4.749999999999998" fill="#1ba1e2" stroke="#006eaf" stroke-width="0.1" pointer-events="all"/><ellipse cx="514.75" cy="229.75" rx="4.749999999999998" ry="4.749999999999998" fill="#1ba1e2" stroke="#006eaf" stroke-width="0.1" pointer-events="all"/><ellipse cx="577.75" cy="109.75" rx="4.749999999999998" ry="4.749999999999998" fill="#1ba1e2" stroke="#006eaf" stroke-width="0.1" pointer-events="all"/><ellipse cx="585.75" cy="165.75" rx="4.749999999999998" ry="4.749999999999998" fill="#1ba1e2" stroke="#006eaf" stroke-width="0.1" pointer-events="all"/><path d="M 355 338 L 685 338 M 685 344 L 355 344 M 685 344" fill="none" stroke="#ff9999" stroke-width="3" stroke-miterlimit="10" pointer-events="all"/><ellipse cx="699.5" cy="339.79" rx="27.5" ry="11.785000000000002" fill="none" stroke="none" pointer-events="all"/><path d="M 680.71 335.13 C 680.9 335.23 680.23 337.47 679.92 337.95 C 679.61 338.43 679.06 338.33 678.84 338.01 C 678.61 337.7 678.48 336.5 678.56 336.06 C 678.65 335.62 679.15 335.24 679.35 335.36 C 679.55 335.48 679.76 336.66 679.78 336.76 M 680.38 336.72 C 680.45 336.74 679.59 336.68 679.27 336.68 C 678.95 336.69 678.6 336.78 678.47 336.75 C 678.35 336.71 678.26 336.59 678.52 336.48 C 678.78 336.38 680.07 336.4 680.01 336.12 C 679.96 335.84 678.51 334.59 678.19 334.79 M 686.06 331.65 C 686.23 331.78 686.97 333.94 686.94 334.44 C 686.9 334.95 686.27 334.81 685.85 334.67 C 685.43 334.53 684.2 333.81 684.41 333.6 C 684.62 333.4 686.83 333.55 687.12 333.45 C 687.41 333.35 686.3 333.22 686.14 332.99 M 687.13 333.57 C 687.39 333.85 687.29 333.23 687.22 333.55 C 687.15 333.87 687.14 335.47 686.71 335.5 C 686.28 335.53 684.8 334.44 684.67 333.74 C 684.53 333.03 685.86 331.73 685.9 331.28 C 685.93 330.82 684.67 330.74 684.89 331.02 M 687.78 340.18 C 688.03 340.51 688.15 342.5 688.07 342.73 C 687.99 342.97 687.45 341.68 687.32 341.59 C 687.19 341.51 687.34 342.22 687.31 342.23 C 687.27 342.23 686.88 341.85 687.1 341.63 C 687.31 341.42 688.55 341.21 688.59 340.93 M 686.93 340.06 C 686.93 339.63 687.64 339.9 687.8 340.53 C 687.96 341.15 688.11 343.76 687.9 343.8 C 687.7 343.84 686.58 341.56 686.58 340.79 C 686.59 340.01 687.96 339.07 687.94 339.17 C 687.91 339.27 686.5 340.9 686.44 341.36 M 696.54 332.16 C 697.09 332.25 698.69 333.12 698.85 333.37 C 699.01 333.62 697.8 333.67 697.52 333.64 C 697.23 333.6 697.25 333.38 697.16 333.17 C 697.08 332.97 696.85 332.61 697.02 332.4 C 697.19 332.19 698.14 332.06 698.16 331.92 M 697.38 330.61 C 697.61 330.38 699.07 331.25 699.03 331.8 C 699 332.35 697.8 333.57 697.16 333.92 C 696.53 334.26 695.37 334.05 695.22 333.85 C 695.06 333.65 695.94 333.08 696.24 332.7 C 696.54 332.32 696.84 331.72 697.03 331.59 M 693.42 343.08 C 693.79 343.37 695.32 344.33 695.48 344.42 C 695.63 344.51 694.69 343.98 694.32 343.6 C 693.95 343.23 693.19 342.42 693.24 342.17 C 693.29 341.92 694.56 342.01 694.62 342.12 C 694.67 342.23 693.67 342.73 693.57 342.83 M 694.1 343.37 C 694.3 343.49 693.81 344.45 693.89 344.61 C 693.97 344.78 694.81 344.94 694.59 344.36 C 694.37 343.77 692.66 341.41 692.55 341.1 C 692.43 340.8 693.52 342.16 693.91 342.51 C 694.3 342.87 695.05 343.11 694.89 343.24 M 704.2 333.15 C 704.49 333.16 704.11 334.07 703.89 334.47 C 703.68 334.87 703.38 335.59 702.9 335.58 C 702.43 335.57 701.02 334.68 701.04 334.43 C 701.07 334.17 702.63 334.15 703.04 334.05 C 703.45 333.96 703.46 333.8 703.52 333.85 M 703.82 334.5 C 703.76 334.6 702.73 335 702.79 335.18 C 702.85 335.37 704.44 335.52 704.16 335.61 C 703.89 335.71 701.3 336.29 701.13 335.74 C 700.97 335.19 702.8 332.77 703.18 332.29 C 703.56 331.81 703.62 332.5 703.43 332.86 M 703.96 341.88 C 704.31 342.01 704.53 343.17 704.39 343.58 C 704.25 344 703.58 344.35 703.13 344.36 C 702.69 344.38 701.53 343.96 701.74 343.68 C 701.94 343.39 704.1 342.92 704.36 342.67 C 704.63 342.41 703.38 342.21 703.33 342.15 M 703.99 342.24 C 704.25 342.32 704.72 342.59 704.74 342.74 C 704.77 342.89 704.44 342.93 704.13 343.13 C 703.82 343.33 703.09 344.18 702.9 343.95 C 702.72 343.72 703.05 342.07 703.02 341.75 C 702.98 341.43 702.75 341.84 702.67 342.04 M 712.35 330.72 C 712.9 330.75 714.3 330.99 714.29 331.33 C 714.29 331.68 712.8 332.65 712.33 332.79 C 711.85 332.92 711.31 332.49 711.45 332.15 C 711.59 331.8 712.97 330.82 713.17 330.72 C 713.38 330.62 712.73 331.54 712.67 331.55 M 711.31 329.93 C 711.33 329.76 712.42 331.26 712.61 331.48 C 712.81 331.69 712.45 330.97 712.51 331.22 C 712.57 331.46 713.12 333.2 712.97 332.95 C 712.82 332.71 711.78 329.99 711.61 329.75 C 711.44 329.51 711.89 331.25 711.97 331.51 M 710.53 340.96 C 710.54 340.91 710.15 341.31 710.11 341.8 C 710.06 342.29 710.42 343.58 710.26 343.88 C 710.1 344.17 709.29 343.9 709.13 343.55 C 708.98 343.2 709.08 342.12 709.35 341.79 C 709.62 341.46 710.57 341.67 710.75 341.54 M 710.37 341.56 C 710.9 341.66 711.79 341.14 711.64 341.64 C 711.48 342.13 709.69 344.34 709.43 344.55 C 709.17 344.76 710.12 343.38 710.06 342.91 C 709.99 342.45 709.13 341.81 709.04 341.76 C 708.95 341.72 709.37 342.46 709.52 342.63 M 721.11 339.09 C 721.3 339.36 721.79 340.18 721.49 340.57 C 721.19 340.96 719.77 341.5 719.29 341.42 C 718.8 341.34 718.3 340.59 718.58 340.1 C 718.86 339.61 720.6 338.69 720.96 338.46 C 721.32 338.23 720.7 338.65 720.72 338.73 M 719.85 338.52 C 720.16 338.19 719.84 338.26 720.02 338.41 C 720.2 338.55 720.93 339.29 720.92 339.4 C 720.9 339.51 719.82 339.34 719.92 339.06 C 720.02 338.78 721.54 338.01 721.49 337.7 C 721.45 337.38 719.62 337.11 719.65 337.17" fill="none" stroke="#ff9999" stroke-width="2" stroke-linejoin="round" stroke-linecap="round" stroke-miterlimit="10" pointer-events="all"/><path d="M 705.78 328.69 C 711.36 329.01 718.55 330.75 721.8 332.67 C 725.06 334.59 725.98 337.77 725.3 340.21 C 724.62 342.64 721.46 345.47 717.73 347.26 C 713.99 349.06 708.31 350.63 702.88 350.97 C 697.45 351.31 689.99 350.8 685.15 349.29 C 680.32 347.78 675.51 344.13 673.86 341.9 C 672.21 339.66 672.89 337.78 675.26 335.89 C 677.63 333.99 682.18 331.43 688.08 330.53 C 693.98 329.62 706.18 330.44 710.67 330.45 C 715.16 330.45 715.26 330.5 715.02 330.53 M 708.54 330.55 C 713.73 331.18 718.85 331.27 721.49 333.15 C 724.13 335.03 725.28 339.44 724.37 341.84 C 723.46 344.24 720.27 345.87 716.04 347.54 C 711.8 349.21 704.41 351.89 698.97 351.87 C 693.53 351.84 687.43 349.03 683.41 347.38 C 679.39 345.74 676 344.2 674.83 341.98 C 673.66 339.77 673.82 336.25 676.38 334.09 C 678.94 331.92 684.71 330 690.19 328.98 C 695.67 327.96 705.99 328.09 709.28 327.97 C 712.58 327.85 710.21 328.02 709.98 328.26" fill="none" stroke="#ff9999" stroke-width="2" stroke-linejoin="round" stroke-linecap="round" stroke-miterlimit="10" pointer-events="all"/><path d="M 360 321 L 375 341" fill="none" stroke="#ff9999" stroke-miterlimit="10" stroke-dasharray="1 2" pointer-events="stroke"/><path d="M 380 321 L 395 341" fill="none" stroke="#ff9999" stroke-miterlimit="10" stroke-dasharray="1 2" pointer-events="stroke"/><path d="M 400 321 L 415 341" fill="none" stroke="#ff9999" stroke-miterlimit="10" stroke-dasharray="1 2" pointer-events="stroke"/><path d="M 420 321 L 435 341" fill="none" stroke="#ff9999" stroke-miterlimit="10" stroke-dasharray="1 2" pointer-events="stroke"/><path d="M 440 321 L 455 341" fill="none" stroke="#ff9999" stroke-miterlimit="10" stroke-dasharray="1 2" pointer-events="stroke"/><path d="M 460 321 L 475 341" fill="none" stroke="#ff9999" stroke-miterlimit="10" stroke-dasharray="1 2" pointer-events="stroke"/><path d="M 480 321 L 495 341" fill="none" stroke="#ff9999" stroke-miterlimit="10" stroke-dasharray="1 2" pointer-events="stroke"/><path d="M 500 321 L 515 341" fill="none" stroke="#ff9999" stroke-miterlimit="10" stroke-dasharray="1 2" pointer-events="stroke"/><path d="M 519 321 L 534 341" fill="none" stroke="#ff9999" stroke-miterlimit="10" stroke-dasharray="1 2" pointer-events="stroke"/><path d="M 539 321 L 554 341" fill="none" stroke="#ff9999" stroke-miterlimit="10" stroke-dasharray="1 2" pointer-events="stroke"/><path d="M 559 321 L 574 341" fill="none" stroke="#ff9999" stroke-miterlimit="10" stroke-dasharray="1 2" pointer-events="stroke"/><path d="M 579 321 L 594 341" fill="none" stroke="#ff9999" stroke-miterlimit="10" stroke-dasharray="1 2" pointer-events="stroke"/><path d="M 599 321 L 614 341" fill="none" stroke="#ff9999" stroke-miterlimit="10" stroke-dasharray="1 2" pointer-events="stroke"/><path d="M 619 321 L 634 341" fill="none" stroke="#ff9999" stroke-miterlimit="10" stroke-dasharray="1 2" pointer-events="stroke"/><path d="M 639 321 L 654 341" fill="none" stroke="#ff9999" stroke-miterlimit="10" stroke-dasharray="1 2" pointer-events="stroke"/><path d="M 659 321 L 674 341" fill="none" stroke="#ff9999" stroke-miterlimit="10" stroke-dasharray="1 2" pointer-events="stroke"/><path d="M 670 311 Q 705 311 705 320" fill="none" stroke="#ff9999" stroke-width="2" stroke-miterlimit="10" pointer-events="stroke"/><path d="M 705 326 L 701 318 L 705 320 L 709 318 Z" fill="#ff9999" stroke="#ff9999" stroke-width="2" stroke-miterlimit="10" pointer-events="all"/><rect x="612" y="351.57" width="130" height="30" fill="none" stroke="none" pointer-events="all"/><g transform="translate(-0.5 -0.5)"><switch><foreignObject pointer-events="none" width="100%" height="100%" requiredFeatures="http://www.w3.org/TR/SVG11/feature#Extensibility" style="overflow: visible; text-align: left;"><div xmlns="http://www.w3.org/1999/xhtml" style="display: flex; align-items: unsafe center; justify-content: unsafe center; width: 128px; height: 1px; padding-top: 367px; margin-left: 613px;"><div data-drawio-colors="color: rgb(0, 0, 0); " style="box-sizing: border-box; font-size: 0px; text-align: center;"><div style="display: inline-block; font-size: 20px; font-family: Helvetica; color: rgb(0, 0, 0); line-height: 1.2; pointer-events: all; font-weight: bold; white-space: normal; overflow-wrap: normal;"><font style=""><span style="font-weight: 400;"><font style="font-size: 18px;">APL neuron</font></span><br /></font></div></div></div></foreignObject><text x="677" y="373" fill="rgb(0, 0, 0)" font-family="Helvetica" font-size="20px" text-anchor="middle" font-weight="bold">APL neuron&#xa;</text></switch></g><rect x="48" y="34.5" width="31" height="30" fill="url(#mx-gradient-d5e8d4-1-97d077-1-s-0)" stroke="#82b366" pointer-events="all"/><g transform="translate(-0.5 -0.5)"><switch><foreignObject pointer-events="none" width="100%" height="100%" requiredFeatures="http://www.w3.org/TR/SVG11/feature#Extensibility" style="overflow: visible; text-align: left;"><div xmlns="http://www.w3.org/1999/xhtml" style="display: flex; align-items: unsafe center; justify-content: unsafe center; width: 29px; height: 1px; padding-top: 50px; margin-left: 49px;"><div data-drawio-colors="color: rgb(0, 0, 0); " style="box-sizing: border-box; font-size: 0px; text-align: center;"><div style="display: inline-block; font-size: 12px; font-family: Helvetica; color: rgb(0, 0, 0); line-height: 1.2; pointer-events: all; white-space: normal; overflow-wrap: normal;"><font style="font-size: 24px;">1</font></div></div></div></foreignObject><text x="64" y="53" fill="rgb(0, 0, 0)" font-family="Helvetica" font-size="12px" text-anchor="middle">1</text></switch></g><rect x="140" y="249" width="31" height="30" fill="url(#mx-gradient-d5e8d4-1-97d077-1-s-0)" stroke="#82b366" pointer-events="all"/><g transform="translate(-0.5 -0.5)"><switch><foreignObject pointer-events="none" width="100%" height="100%" requiredFeatures="http://www.w3.org/TR/SVG11/feature#Extensibility" style="overflow: visible; text-align: left;"><div xmlns="http://www.w3.org/1999/xhtml" style="display: flex; align-items: unsafe center; justify-content: unsafe center; width: 29px; height: 1px; padding-top: 264px; margin-left: 141px;"><div data-drawio-colors="color: rgb(0, 0, 0); " style="box-sizing: border-box; font-size: 0px; text-align: center;"><div style="display: inline-block; font-size: 12px; font-family: Helvetica; color: rgb(0, 0, 0); line-height: 1.2; pointer-events: all; white-space: normal; overflow-wrap: normal;"><font style="font-size: 24px;">2</font></div></div></div></foreignObject><text x="156" y="268" fill="rgb(0, 0, 0)" font-family="Helvetica" font-size="12px" text-anchor="middle">2</text></switch></g><rect x="470" y="129.5" width="31" height="30" fill="url(#mx-gradient-d5e8d4-1-97d077-1-s-0)" stroke="#82b366" pointer-events="all"/><g transform="translate(-0.5 -0.5)"><switch><foreignObject pointer-events="none" width="100%" height="100%" requiredFeatures="http://www.w3.org/TR/SVG11/feature#Extensibility" style="overflow: visible; text-align: left;"><div xmlns="http://www.w3.org/1999/xhtml" style="display: flex; align-items: unsafe center; justify-content: unsafe center; width: 29px; height: 1px; padding-top: 145px; margin-left: 471px;"><div data-drawio-colors="color: rgb(0, 0, 0); " style="box-sizing: border-box; font-size: 0px; text-align: center;"><div style="display: inline-block; font-size: 12px; font-family: Helvetica; color: rgb(0, 0, 0); line-height: 1.2; pointer-events: all; white-space: normal; overflow-wrap: normal;"><font style="font-size: 24px;">3</font></div></div></div></foreignObject><text x="486" y="148" fill="rgb(0, 0, 0)" font-family="Helvetica" font-size="12px" text-anchor="middle">3</text></switch></g><rect x="582.5" y="351.57" width="31" height="30" fill="url(#mx-gradient-d5e8d4-1-97d077-1-s-0)" stroke="#82b366" pointer-events="all"/><g transform="translate(-0.5 -0.5)"><switch><foreignObject pointer-events="none" width="100%" height="100%" requiredFeatures="http://www.w3.org/TR/SVG11/feature#Extensibility" style="overflow: visible; text-align: left;"><div xmlns="http://www.w3.org/1999/xhtml" style="display: flex; align-items: unsafe center; justify-content: unsafe center; width: 29px; height: 1px; padding-top: 367px; margin-left: 584px;"><div data-drawio-colors="color: rgb(0, 0, 0); " style="box-sizing: border-box; font-size: 0px; text-align: center;"><div style="display: inline-block; font-size: 12px; font-family: Helvetica; color: rgb(0, 0, 0); line-height: 1.2; pointer-events: all; white-space: normal; overflow-wrap: normal;"><font style="font-size: 24px;">4</font></div></div></div></foreignObject><text x="598" y="370" fill="rgb(0, 0, 0)" font-family="Helvetica" font-size="12px" text-anchor="middle">4</text></switch></g></g><switch><g requiredFeatures="http://www.w3.org/TR/SVG11/feature#Extensibility"/><a transform="translate(0,-5)" xlink:href="https://www.drawio.com/doc/faq/svg-export-text-problems" target="_blank"><text text-anchor="middle" font-size="10px" x="50%" y="100%">Text is not SVG - cannot display</text></a></switch></svg>